<svg xmlns="http://www.w3.org/2000/svg" width="16" height="16" viewBox="0 0 16 16">
    <g fill="none" fill-rule="evenodd">
        <path d="M0 0h16v16H0z"/>
        <path fill="#9B9B9B" fill-rule="nonzero" d="M13.784 13.738l-2.76-2.76c1.441-1.954 1.272-4.758-.483-6.513A4.972 4.972 0 0 0 7.003 3a4.97 4.97 0 0 0-3.537 1.465A4.97 4.97 0 0 0 2 8.003c0 1.336.52 2.593 1.466 3.538a4.97 4.97 0 0 0 3.537 1.466 4.976 4.976 0 0 0 2.976-.982l2.759 2.758c.14.14.325.217.523.217a.733.733 0 0 0 .522-.216.734.734 0 0 0 .217-.523.734.734 0 0 0-.216-.523zm-6.78-9.26c.94 0 1.825.367 2.491 1.033a3.5 3.5 0 0 1 1.03 2.492 3.5 3.5 0 0 1-1.03 2.492 3.5 3.5 0 0 1-2.492 1.032 3.502 3.502 0 0 1-2.492-1.032A3.5 3.5 0 0 1 3.48 8.003 3.5 3.5 0 0 1 4.51 5.511 3.502 3.502 0 0 1 7.003 4.48z"/>
    </g>
</svg>
